<?xml version="1.0" standalone="no"?>
<!DOCTYPE svg PUBLIC "-//W3C//DTD SVG 20010904//EN"
 "http://www.w3.org/TR/2001/REC-SVG-20010904/DTD/svg10.dtd">
<svg version="1.0" xmlns="http://www.w3.org/2000/svg"
 width="700.000000pt" height="700.000000pt" viewBox="0 0 700.000000 700.000000"
 preserveAspectRatio="xMidYMid meet">
<metadata>
Created by potrace 1.14, written by Peter Selinger 2001-2017
</metadata>
<g transform="translate(0.000000,700.000000) scale(0.100000,-0.100000)"
fill="#000000" stroke="none">
<path d="M1935 6988 c-332 -33 -693 -162 -964 -342 -554 -371 -896 -940 -960
-1600 -15 -149 -15 -2954 -1 -3097 75 -736 508 -1368 1168 -1703 216 -109 420
-174 672 -213 107 -17 222 -18 1650 -18 1598 0 1571 -1 1780 41 799 161 1446
783 1645 1583 63 253 60 164 60 1856 0 1431 -1 1548 -18 1655 -40 254 -103
454 -215 675 -332 657 -966 1090 -1701 1165 -129 13 -2985 11 -3116 -2z m2475
-1508 c212 -26 375 -73 555 -160 408 -197 685 -555 772 -997 23 -121 23 -365
0 -493 -116 -628 -627 -1118 -1398 -1340 -444 -127 -1056 -171 -1394 -101 -49
11 -93 17 -97 15 -4 -3 -118 -149 -254 -324 l-246 -320 -95 0 -95 0 30 38 c16
20 138 178 271 351 l242 314 -53 34 c-76 50 -105 80 -136 143 -82 168 30 476
235 647 168 141 362 210 616 220 l148 6 276 358 276 359 89 0 c48 0 88 -3 88
-8 0 -4 -128 -174 -285 -377 -157 -204 -285 -372 -285 -375 0 -3 35 -21 78
-40 203 -91 396 -264 506 -453 16 -26 27 -50 25 -52 -2 -2 -44 -6 -94 -10
l-90 -7 -63 81 c-80 101 -180 195 -274 259 -94 63 -178 106 -188 95 -38 -38
-639 -830 -637 -838 7 -19 126 -54 227 -65 147 -18 453 -8 610 19 742 128
1278 446 1564 931 400 676 157 1540 -529 1883 -252 126 -535 169 -875 133
-769 -81 -1363 -323 -1842 -750 -276 -245 -519 -588 -686 -967 -120 -270 -201
-534 -261 -844 l-27 -140 -92 -3 -92 -3 0 30 c0 16 11 95 25 176 234 1384
1127 2282 2505 2519 135 24 360 51 475 59 121 8 398 6 475 -3z"/>
<path d="M3256 3409 c-121 -25 -259 -111 -377 -237 -127 -136 -182 -251 -183
-382 0 -83 15 -122 66 -177 l31 -32 286 372 c364 472 345 447 339 452 -10 10
-117 13 -162 4z"/>
</g>
</svg>
